<svg width="110" height="37" fill="none" xmlns="http://www.w3.org/2000/svg"><g clip-path="url(#clip0)" fill="#fff"><path d="M42.145 3.472h-.376v29.724h.376V3.472zm6.1 27.93h-.566v-4.455h1.294c.25 0 .476.027.675.08.2.052.37.136.512.25.143.115.251.26.328.434.075.174.113.382.113.623 0 .462-.148.816-.444 1.06-.294.245-.706.367-1.234.367h-.678v1.64zm0-2.176h.678c.35 0 .619-.071.8-.216.182-.144.273-.365.273-.662 0-.306-.09-.525-.273-.661-.181-.135-.45-.203-.8-.203h-.678v1.742zm5.539 2.239a2.08 2.08 0 01-.826-.159 1.754 1.754 0 01-.628-.455 2.018 2.018 0 01-.4-.722 3.072 3.072 0 01-.137-.954c0-.357.049-.676.144-.957.096-.282.232-.522.406-.718.174-.197.382-.35.625-.456.243-.106.509-.159.797-.159.328 0 .614.058.863.169.25.112.46.27.629.471.169.202.297.443.386.725.088.283.132.59.132.925a3 3 0 01-.15.995 2.01 2.01 0 01-.416.716c-.175.19-.385.335-.628.433a2.099 2.099 0 01-.797.146zm.056-.533c.415 0 .74-.148.978-.443.236-.295.354-.733.354-1.314 0-.306-.033-.568-.097-.788a1.494 1.494 0 00-.28-.548 1.08 1.08 0 00-.442-.317 1.598 1.598 0 00-.588-.102c-.193 0-.373.037-.54.108a1.185 1.185 0 00-.434.324 1.582 1.582 0 00-.288.547c-.072.22-.107.48-.107.776 0 .292.035.55.103.77.07.22.166.404.293.55.126.146.278.256.456.327.177.073.375.11.592.11zm6.407.349c-.122.06-.263.105-.428.137a2.804 2.804 0 01-.534.047c-.343 0-.65-.052-.92-.155a1.875 1.875 0 01-.687-.45 1.992 1.992 0 01-.434-.703c-.1-.272-.15-.582-.15-.925 0-.377.05-.712.15-1.004.1-.294.245-.538.434-.738.188-.2.415-.35.681-.452.267-.102.563-.152.889-.152.25 0 .456.017.612.053.157.037.288.075.393.118l-.106.503a2.077 2.077 0 00-.422-.108 2.95 2.95 0 00-.42-.032c-.524 0-.924.15-1.198.446-.274.297-.412.735-.412 1.31 0 .277.04.523.116.742.077.219.188.403.33.554a1.4 1.4 0 00.52.344c.206.078.438.117.698.117.138 0 .277-.012.418-.038a1.38 1.38 0 00.374-.12l.096.506zm3.951-1.069H62.32l-.428 1.19h-.572l1.678-4.455h.566l1.644 4.455h-.59l-.42-1.19zm-1.696-.521h1.513l-.735-2.093h-.025l-.754 2.093zm5.012 1.711h-.565v-3.92h-1.3v-.535h3.165v.535h-1.3v3.92zm4.234.063c-.305 0-.58-.054-.825-.159a1.754 1.754 0 01-.628-.455 2.018 2.018 0 01-.4-.722 3.072 3.072 0 01-.138-.954c0-.357.049-.676.144-.957.096-.282.232-.522.406-.718.174-.197.382-.35.625-.456.243-.106.51-.159.797-.159.326 0 .615.058.864.169.249.112.459.27.628.471.169.202.297.443.387.725.087.283.131.59.131.925a3 3 0 01-.15.995c-.1.287-.238.525-.415.716-.176.19-.386.335-.628.433-.243.099-.51.146-.798.146zm.057-.533c.415 0 .74-.148.977-.443.237-.295.354-.733.354-1.314 0-.306-.033-.568-.097-.788a1.519 1.519 0 00-.279-.548 1.08 1.08 0 00-.443-.317 1.598 1.598 0 00-.587-.102c-.193 0-.373.037-.54.108a1.19 1.19 0 00-.435.324 1.582 1.582 0 00-.288.547c-.072.22-.107.48-.107.776 0 .292.035.55.104.77.069.22.166.404.291.55.126.146.277.256.456.327.179.073.376.11.594.11zm7.738.47h-.566l-.27-3.48-1.113 3.48h-.59l-1.106-3.468-.276 3.468h-.565l.377-4.455h.691l1.187 3.831 1.163-3.83h.69l.378 4.454zm-27.71-19.488h-.698V9.378h-2.751v2.534h-.7v-5.51h.7v2.33h2.75v-2.33h.7v5.512zm5.113-1.473h-2.323l-.528 1.473h-.706l2.075-5.511h.699l2.036 5.51h-.73l-.523-1.472zm-2.097-.646h1.873l-.908-2.59h-.032l-.933 2.59zm5.393 1.701a1.12 1.12 0 00.37-.27c.106-.118.203-.277.291-.477l.055-.125-2.029-4.22h.785l1.609 3.457 1.29-3.457h.707l-1.78 4.464a3.198 3.198 0 01-.154.327 2.58 2.58 0 01-.21.322 1.99 1.99 0 01-.26.28 1.246 1.246 0 01-.3.196l-.374-.497zM67.404 11c-.158-.257-.291-.48-.401-.665a20.21 20.21 0 00-.273-.457 1.625 1.625 0 00-.205-.276.562.562 0 00-.21-.138.825.825 0 00-.275-.04h-.513v2.488h-.7v-5.51h.7v2.505h.46l1.918-2.504h.895l-2.091 2.534c.15.027.281.102.396.224a3.5 3.5 0 01.388.542c.146.24.326.542.54.907.215.365.499.8.851 1.302h-.886a23.31 23.31 0 01-.594-.912zm6.081-.559h-2.323l-.528 1.473h-.706l2.075-5.511h.699l2.036 5.51h-.73l-.523-1.472zm-2.099-.646h1.874l-.909-2.59h-.031l-.934 2.59zM51.818 21.36h-.7v-4.44l-2.642 4.44h-.792v-5.51h.7v4.44l2.642-4.44h.793v5.51h-.002zm8.899 0h-.699v-4.44l-2.642 4.44h-.793v-5.51h.7v4.44l2.643-4.44h.792v5.51h-.001zm6.325 0h-.698v-2.534h-2.751v2.534h-.7v-5.51h.7v2.33h2.75v-2.33h.7v5.51zm6.326 0h-.699v-2.534h-2.75v2.534h-.7v-5.51h.7v2.33h2.75v-2.33h.699v5.51zm4.406.08c-.377 0-.719-.066-1.021-.197a2.164 2.164 0 01-.777-.564 2.504 2.504 0 01-.494-.893 3.81 3.81 0 01-.17-1.18c0-.442.06-.837.178-1.186.12-.349.287-.646.501-.89a2.18 2.18 0 01.774-.564c.301-.131.63-.196.987-.196.404 0 .76.07 1.068.208.309.14.568.333.777.582.21.25.37.55.478.898.108.35.163.732.163 1.146 0 .466-.063.877-.186 1.231a2.536 2.536 0 01-.513.886 2.096 2.096 0 01-.776.534 2.581 2.581 0 01-.989.184zm.07-.662c.513 0 .917-.183 1.208-.548.293-.365.439-.906.439-1.625a3.5 3.5 0 00-.12-.976 1.846 1.846 0 00-.347-.677 1.359 1.359 0 00-.548-.394 1.981 1.981 0 00-.727-.125c-.238 0-.46.044-.669.133a1.443 1.443 0 00-.536.402c-.15.178-.27.404-.357.677a3.149 3.149 0 00-.131.96c0 .362.042.68.128.953.086.273.205.5.362.68.155.181.343.316.564.405.22.09.465.135.734.135zm4.336.582v-5.51h1.656c.317 0 .586.034.809.1a1.4 1.4 0 01.543.283c.14.124.242.27.303.441.062.172.094.359.094.564 0 .325-.088.596-.265.814-.175.217-.436.363-.777.436v.016c.388.057.683.203.882.436.199.233.3.52.3.854 0 .205-.037.401-.109.59a1.323 1.323 0 01-.341.5 1.7 1.7 0 01-.599.346 2.65 2.65 0 01-.886.13h-1.61zm.7-3.132h.746c.234 0 .431-.024.591-.072.16-.047.29-.112.389-.196a.726.726 0 00.213-.303c.043-.118.065-.246.065-.383 0-.246-.086-.436-.257-.566-.17-.132-.466-.197-.886-.197h-.863v1.717h.003zm0 2.472h.956c.762 0 1.142-.3 1.142-.898 0-.346-.108-.595-.322-.747-.215-.153-.54-.229-.976-.229h-.8V20.7zm7.694-.81h-2.323l-.528 1.472h-.706l2.075-5.511h.699l2.036 5.51h-.73l-.523-1.472zm-2.099-.647h1.874l-.909-2.59h-.031l-.934 2.59zm9.403 3.345h-.7V21.36h-3.8v-5.51h.7v4.85h2.48v-4.85h.698v4.85h.622v1.888zm5.845-1.228h-.699v-4.44l-2.642 4.44h-.793v-5.51h.7v4.44l2.643-4.44h.792v5.51h-.001zm6.31 0h-.699v-4.44l-2.642 4.44h-.793v-5.51h.7v4.44l2.643-4.44h.793v5.51h-.002zm-88.983-.343a3.74 3.74 0 01-5.343.269 3.891 3.891 0 01-.268-5.43 3.74 3.74 0 015.345-.267c1.55 1.423 1.669 3.854.267 5.428zM9.48 18.57s2.109-1.085 3.329-5.92c1.222-4.832 5.77-7.08 5.77-7.08S8.812-4.246 1.416 11.152c0 0 6.03 1.198 8.063 7.419z"/><path d="M10.367 1.787s7.525-1.5 11.982 8.055c0 0 5.196 1.704 9.764-3.185 0 0-7.637-10.584-21.746-4.87zm12.278 24.021s-1.983-1.306-6.725.041c-4.742 1.35-8.938-1.518-8.938-1.518S3.476 37.806 20.337 36.59c0 0-1.99-5.888 2.308-10.783z"/><path d="M7.856 33.426s-5.046-5.852.89-14.54c0 0-1.142-5.41-7.607-6.97 0 0-5.226 11.991 6.717 21.51zm14.416-22.729s-.124 2.393 3.398 5.879c3.523 3.485 3.173 8.599 3.173 8.599s13.272-3.664 3.8-17.847c0 0-4.036 4.694-10.371 3.369z"/><path d="M36.181 19.862s-2.478 7.352-12.875 6.49c0 0-4.052 3.707-2.154 10.16.002 0 12.867-1.415 15.03-16.65z"/></g><defs><clipPath id="clip0"><path fill="#fff" d="M0 0h110v36.667H0z"/></clipPath></defs></svg>