<svg width="110" height="37" viewBox="0 0 110 37" fill="none" xmlns="http://www.w3.org/2000/svg">
<g clip-path="url(#clip0)">
<path d="M42.1445 3.47205H41.7686V33.1964H42.1445V3.47205Z" fill="white"/>
<path d="M48.2447 31.4016H47.6792V26.9474H48.9731C49.2237 26.9474 49.4493 26.9744 49.6483 27.0267C49.8472 27.0791 50.018 27.1632 50.1605 27.2774C50.3031 27.3917 50.4111 27.5361 50.4879 27.7106C50.5631 27.8852 50.6007 28.0931 50.6007 28.3343C50.6007 28.796 50.4534 29.1499 50.1574 29.3943C49.8629 29.6386 49.4509 29.7608 48.923 29.7608H48.2447V31.4016ZM48.2447 29.2261H48.923C49.2739 29.2261 49.5417 29.1547 49.7235 29.0103C49.9052 28.8659 49.996 28.6453 49.996 28.3485C49.996 28.0423 49.9052 27.8233 49.7235 27.6868C49.5417 27.552 49.2739 27.4837 48.923 27.4837H48.2447V29.2261Z" fill="white"/>
<path d="M53.784 31.4651C53.4785 31.4651 53.2028 31.4111 52.9584 31.3064C52.7141 31.2001 52.5042 31.0493 52.3303 30.851C52.1564 30.6542 52.0232 30.413 51.9308 30.129C51.8384 29.8449 51.793 29.5276 51.793 29.1753C51.793 28.8182 51.8415 28.4993 51.9371 28.2184C52.0326 27.936 52.1689 27.6964 52.3428 27.4996C52.5167 27.3028 52.725 27.1505 52.9678 27.0442C53.2106 26.9379 53.477 26.8855 53.7652 26.8855C54.0926 26.8855 54.3793 26.9426 54.6283 27.0537C54.8774 27.1664 55.0873 27.3235 55.2565 27.525C55.4257 27.7265 55.5541 27.9677 55.6434 28.2502C55.7311 28.5326 55.775 28.8405 55.775 29.1753C55.775 29.5529 55.7249 29.8846 55.6246 30.1702C55.5244 30.4574 55.3865 30.6955 55.2095 30.8859C55.0341 31.0763 54.8241 31.2207 54.5813 31.3191C54.3385 31.4175 54.0738 31.4651 53.784 31.4651ZM53.8404 30.9319C54.2555 30.9319 54.5798 30.7843 54.8179 30.4892C55.0544 30.194 55.1719 29.7561 55.1719 29.1753C55.1719 28.869 55.139 28.6072 55.0748 28.3866C55.0106 28.1661 54.9166 27.9836 54.7959 27.8392C54.6738 27.6948 54.5265 27.5885 54.3526 27.5218C54.1787 27.4536 53.9829 27.4203 53.7652 27.4203C53.5725 27.4203 53.3924 27.4568 53.2247 27.5282C53.0571 27.6012 52.913 27.7091 52.7908 27.8519C52.6686 27.9963 52.5731 28.1788 52.5026 28.3993C52.4305 28.6199 52.3961 28.8785 52.3961 29.1753C52.3961 29.4673 52.4305 29.7243 52.4995 29.9449C52.5684 30.1655 52.6655 30.3495 52.7924 30.4955C52.9177 30.6415 53.0697 30.751 53.2482 30.8224C53.4253 30.8954 53.6226 30.9319 53.8404 30.9319Z" fill="white"/>
<path d="M60.2471 31.281C60.1249 31.3413 59.9839 31.3857 59.8194 31.4175C59.6565 31.4492 59.4779 31.4651 59.2853 31.4651C58.9422 31.4651 58.6352 31.4127 58.3657 31.3096C58.0963 31.2064 57.866 31.0557 57.678 30.8605C57.4901 30.6653 57.3444 30.4305 57.2441 30.1575C57.1439 29.8846 57.0938 29.5752 57.0938 29.2324C57.0938 28.8547 57.1439 28.5199 57.2441 28.2279C57.3444 27.9344 57.4885 27.69 57.678 27.4901C57.866 27.2901 58.0932 27.1394 58.3595 27.0378C58.6258 26.9363 58.9218 26.8855 59.2477 26.8855C59.4983 26.8855 59.7035 26.903 59.8602 26.9395C60.0168 26.9759 60.1484 27.014 60.2533 27.0569L60.1468 27.5599C60.009 27.5091 59.868 27.4726 59.7254 27.452C59.5829 27.4314 59.4419 27.4203 59.3041 27.4203C58.7808 27.4203 58.3814 27.5694 58.1073 27.8662C57.8331 28.1629 57.6953 28.6009 57.6953 29.1769C57.6953 29.453 57.7344 29.6989 57.8112 29.9179C57.888 30.1369 57.9992 30.321 58.1402 30.4717C58.2827 30.6225 58.4566 30.7367 58.6618 30.8161C58.867 30.8938 59.0988 30.9335 59.3589 30.9335C59.4967 30.9335 59.6361 30.9208 59.7771 30.8954C59.9181 30.87 60.0419 30.8287 60.1515 30.7748L60.2471 31.281Z" fill="white"/>
<path d="M64.198 30.2115H62.3197L61.8921 31.4016H61.3203L62.998 26.9474H63.5635L65.2084 31.4016H64.6178L64.198 30.2115ZM62.5015 29.691H64.0147L63.28 27.598H63.2549L62.5015 29.691Z" fill="white"/>
<path d="M67.5141 31.4016H66.9486V27.4821H65.6484V26.9474H68.8143V27.4821H67.5141V31.4016Z" fill="white"/>
<path d="M71.7483 31.4651C71.4428 31.4651 71.1671 31.4111 70.9228 31.3064C70.6784 31.2001 70.4685 31.0493 70.2946 30.851C70.1207 30.6542 69.9876 30.413 69.8952 30.129C69.8028 29.8449 69.7573 29.5276 69.7573 29.1753C69.7573 28.8182 69.8059 28.4993 69.9014 28.2184C69.997 27.936 70.1333 27.6964 70.3072 27.4996C70.481 27.3028 70.6894 27.1505 70.9322 27.0442C71.175 26.9379 71.4413 26.8855 71.7295 26.8855C72.0553 26.8855 72.3436 26.9426 72.5926 27.0537C72.8417 27.1664 73.0516 27.3235 73.2208 27.525C73.39 27.7265 73.5184 27.9677 73.6077 28.2502C73.6954 28.5326 73.7393 28.8405 73.7393 29.1753C73.7393 29.5529 73.6892 29.8846 73.5889 30.1702C73.4886 30.4574 73.3508 30.6955 73.1738 30.8859C72.9983 31.0763 72.7884 31.2207 72.5456 31.3191C72.3028 31.4175 72.0365 31.4651 71.7483 31.4651ZM71.8047 30.9319C72.2198 30.9319 72.5441 30.7843 72.7822 30.4892C73.0187 30.194 73.1362 29.7561 73.1362 29.1753C73.1362 28.869 73.1033 28.6072 73.0391 28.3866C72.9733 28.1661 72.8809 27.9836 72.7602 27.8392C72.6381 27.6948 72.4908 27.5885 72.3169 27.5218C72.1431 27.4536 71.9472 27.4203 71.7295 27.4203C71.5368 27.4203 71.3567 27.4568 71.1891 27.5282C71.0215 27.6012 70.8773 27.7091 70.7552 27.8519C70.633 27.9963 70.5374 28.1788 70.4669 28.3993C70.3949 28.6199 70.3604 28.8785 70.3604 29.1753C70.3604 29.4673 70.3949 29.7243 70.4638 29.9449C70.5327 30.1655 70.6298 30.3495 70.7552 30.4955C70.8805 30.6415 71.0324 30.751 71.211 30.8224C71.3896 30.8954 71.587 30.9319 71.8047 30.9319Z" fill="white"/>
<path d="M79.543 31.4016H78.9775L78.7065 27.9217L77.5943 31.4016H77.0038L75.8978 27.9344L75.6221 31.4016H75.0566L75.4342 26.9474H76.125L77.3124 30.778L78.4747 26.9474H79.1655L79.543 31.4016Z" fill="white"/>
<path d="M51.8332 11.9139H51.1345V9.37812H48.3838V11.9123H47.6836V6.40283H48.3838V8.73228H51.1345V6.40283H51.8332V11.9139Z" fill="white"/>
<path d="M56.9462 10.4413H54.6231L54.0952 11.9139H53.3887L55.4643 6.40283H56.1629L58.1993 11.9139H57.4694L56.9462 10.4413ZM54.8486 9.79545H56.7221L55.8136 7.20576H55.7823L54.8486 9.79545Z" fill="white"/>
<path d="M60.2419 11.4965C60.3813 11.4331 60.5051 11.3426 60.6116 11.2252C60.7181 11.1078 60.8153 10.9491 60.903 10.7491L60.9578 10.6238L58.9292 6.40442H59.714L61.3228 9.86051L62.6136 6.40442H63.3201L61.5406 10.8681C61.4983 10.9729 61.4466 11.0824 61.3855 11.195C61.3228 11.3077 61.2539 11.4156 61.1756 11.5172C61.0972 11.6187 61.0111 11.7123 60.9155 11.7964C60.82 11.8805 60.7197 11.9456 60.6163 11.9932L60.2419 11.4965Z" fill="white"/>
<path d="M67.404 10.9999C67.2458 10.7428 67.1127 10.5206 67.003 10.335C66.8949 10.1493 66.8041 9.99698 66.7304 9.87797C66.6584 9.76054 66.5895 9.66851 66.5252 9.60186C66.461 9.5368 66.3905 9.49078 66.3153 9.46381C66.2401 9.43683 66.1477 9.42414 66.0396 9.42414H65.5274V11.9123H64.8271V6.40283H65.5274V8.90683H65.9864L67.9053 6.40283H68.7998L66.7085 8.93698C66.8589 8.96396 66.9905 9.03854 67.1048 9.16073C67.2192 9.2845 67.3476 9.4654 67.4933 9.70342C67.639 9.94303 67.8192 10.2445 68.0338 10.6095C68.2484 10.9745 68.5319 11.4093 68.8844 11.9123H67.9977C67.7596 11.5616 67.5623 11.2585 67.404 10.9999Z" fill="white"/>
<path d="M73.4852 10.4413H71.1621L70.6342 11.9139H69.9277L72.0033 6.40283H72.7019L74.7383 11.9139H74.0084L73.4852 10.4413ZM71.3861 9.79545H73.2596L72.3511 7.20576H72.3197L71.3861 9.79545Z" fill="white"/>
<path d="M51.8175 21.3602H51.1189V16.9202L48.4762 21.3602H47.6836V15.8507H48.3838V20.2906L51.0265 15.8507H51.8191V21.3602H51.8175Z" fill="white"/>
<path d="M60.717 21.3602H60.0183V16.9202L57.3756 21.3602H56.583V15.8507H57.2832V20.2906L59.9259 15.8507H60.7185V21.3602H60.717Z" fill="white"/>
<path d="M67.0422 21.3602H66.3435V18.826H63.5928V21.3602H62.8926V15.8507H63.5928V18.1802H66.3435V15.8507H67.0422V21.3602Z" fill="white"/>
<path d="M73.3679 21.3602H72.6692V18.826H69.9185V21.3602H69.2183V15.8507H69.9185V18.1802H72.6692V15.8507H73.3679V21.3602Z" fill="white"/>
<path d="M77.774 21.4395C77.3965 21.4395 77.055 21.3744 76.7527 21.2427C76.4488 21.111 76.1903 20.9238 75.9757 20.6794C75.7611 20.435 75.5966 20.1383 75.4823 19.786C75.3679 19.4338 75.3115 19.0402 75.3115 18.6054C75.3115 18.1643 75.3711 17.7692 75.4901 17.4201C75.6092 17.071 75.7768 16.7742 75.9914 16.5299C76.206 16.2855 76.4644 16.0982 76.7652 15.9665C77.066 15.8348 77.3949 15.7698 77.7521 15.7698C78.1562 15.7698 78.5118 15.8396 78.8204 15.9777C79.129 16.1173 79.3875 16.3109 79.5974 16.56C79.8073 16.8091 79.9671 17.1091 80.0752 17.4582C80.1832 17.8073 80.2381 18.1897 80.2381 18.6038C80.2381 19.0704 80.1754 19.4814 80.0517 19.8352C79.9279 20.1891 79.7556 20.4842 79.5394 20.7207C79.3232 20.9571 79.0632 21.1348 78.7625 21.2554C78.4601 21.3792 78.1312 21.4395 77.774 21.4395ZM77.8445 20.7778C78.3567 20.7778 78.7609 20.5953 79.0522 20.2303C79.3452 19.8654 79.4909 19.3243 79.4909 18.6054C79.4909 18.2278 79.4501 17.9025 79.3702 17.6295C79.2904 17.3566 79.1744 17.1313 79.0241 16.952C78.8737 16.7742 78.6904 16.6425 78.4758 16.5584C78.2612 16.4743 78.0184 16.4331 77.7489 16.4331C77.5108 16.4331 77.2884 16.4775 77.0801 16.5664C76.8733 16.6552 76.6947 16.7901 76.5443 16.9678C76.394 17.1456 76.2749 17.3725 76.1872 17.6454C76.0995 17.9183 76.0556 18.2389 76.0556 18.6054C76.0556 18.9672 76.0979 19.2846 76.184 19.5575C76.2702 19.8305 76.3893 20.0574 76.5459 20.2383C76.701 20.4192 76.889 20.554 77.1098 20.6429C77.3307 20.7334 77.5751 20.7778 77.8445 20.7778Z" fill="white"/>
<path d="M82.1807 21.3602V15.8507H83.8364C84.1529 15.8507 84.4223 15.884 84.6447 15.9491C84.8672 16.0142 85.0489 16.1094 85.1883 16.2331C85.3277 16.3569 85.4296 16.5029 85.4907 16.6743C85.5533 16.8456 85.5846 17.0329 85.5846 17.2376C85.5846 17.5629 85.4969 17.8342 85.3199 18.0516C85.1445 18.269 84.8844 18.415 84.5429 18.488V18.5039C84.9314 18.561 85.2259 18.707 85.4249 18.9402C85.6238 19.1735 85.7241 19.4591 85.7241 19.794C85.7241 19.9987 85.688 20.1954 85.616 20.3843C85.5439 20.5731 85.4296 20.7397 85.2745 20.8841C85.1194 21.0285 84.9189 21.1443 84.6761 21.23C84.4317 21.3173 84.1372 21.3602 83.7895 21.3602H82.1807ZM82.8809 18.2278H83.6265C83.8599 18.2278 84.0573 18.204 84.2171 18.1564C84.3769 18.1088 84.5069 18.0437 84.6056 17.9596C84.7043 17.8755 84.7748 17.7739 84.8186 17.6565C84.8625 17.5391 84.8844 17.4106 84.8844 17.2741C84.8844 17.0281 84.7983 16.8377 84.6275 16.7076C84.4568 16.5759 84.1607 16.5108 83.7409 16.5108H82.8778V18.2278H82.8809ZM82.8809 20.7H83.8364C84.5978 20.7 84.9784 20.4001 84.9784 19.8019C84.9784 19.456 84.8703 19.2068 84.6557 19.0545C84.4411 18.9022 84.1153 18.826 83.6798 18.826H82.8793V20.7H82.8809Z" fill="white"/>
<path d="M90.5741 19.8892H88.251L87.7231 21.3617H87.0166L89.0922 15.8507H89.7909L91.8273 21.3617H91.0973L90.5741 19.8892ZM88.475 19.2433H90.3485L89.44 16.6536H89.4086L88.475 19.2433Z" fill="white"/>
<path d="M97.8784 22.5883H97.1782V21.3601H93.3779V15.8507H94.0782V20.7H96.5579V15.8507H97.2565V20.7H97.8784V22.5883Z" fill="white"/>
<path d="M103.723 21.3602H103.024V16.9202L100.382 21.3602H99.5889V15.8507H100.289V20.2906L102.932 15.8507H103.724V21.3602H103.723Z" fill="white"/>
<path d="M110.033 21.3602H109.334V16.9202L106.692 21.3602H105.899V15.8507H106.599V20.2906L109.242 15.8507H110.035V21.3602H110.033Z" fill="white"/>
<path d="M21.0505 21.0175C19.6484 22.5916 17.2549 22.7122 15.7072 21.2857C14.1595 19.8607 14.0389 17.4281 15.4393 15.8556C16.8413 14.2815 19.2333 14.1625 20.7841 15.589C22.3334 17.0124 22.4525 19.4434 21.0505 21.0175Z" fill="white"/>
<path d="M9.48016 18.5707C9.48016 18.5707 11.5886 17.4853 12.8089 12.6502C14.0308 7.81837 18.5783 5.56984 18.5783 5.56984C18.5783 5.56984 8.81284 -4.24624 1.41748 11.1523C1.41748 11.1523 7.44687 12.3503 9.48016 18.5707Z" fill="white"/>
<path d="M10.3667 1.78681C10.3667 1.78681 17.8921 0.287267 22.3487 9.84151C22.3487 9.84151 27.5448 11.5458 32.1126 6.65676C32.1126 6.65676 24.476 -3.92733 10.3667 1.78681Z" fill="white"/>
<path d="M22.6449 25.8081C22.6449 25.8081 20.6617 24.5022 15.92 25.8494C11.1782 27.1982 6.98161 24.3308 6.98161 24.3308C6.98161 24.3308 3.47582 37.8061 20.3374 36.5906C20.3374 36.5906 18.3464 30.7035 22.6449 25.8081Z" fill="white"/>
<path d="M7.85581 33.4265C7.85581 33.4265 2.81017 27.5743 8.74558 18.8864C8.74558 18.8864 7.60361 13.4754 1.13873 11.9155C1.13873 11.9155 -4.08706 23.9071 7.85581 33.4265Z" fill="white"/>
<path d="M22.272 10.6968C22.272 10.6968 22.1483 13.0897 25.6697 16.576C29.1927 20.0606 28.8434 25.175 28.8434 25.175C28.8434 25.175 42.1147 21.511 32.6421 7.328C32.6437 7.328 28.6069 12.0218 22.272 10.6968Z" fill="white"/>
<path d="M36.1811 19.8623C36.1811 19.8623 33.7029 27.214 23.3062 26.3524C23.3062 26.3524 19.2537 30.0592 21.1523 36.5112C21.1539 36.5112 34.0194 35.0974 36.1811 19.8623Z" fill="white"/>
</g>
<defs>
<clipPath id="clip0">
<rect width="110" height="36.6667" fill="white"/>
</clipPath>
</defs>
</svg>
