<svg width="30" height="30" viewBox="0 0 30 30" fill="none" xmlns="http://www.w3.org/2000/svg">
<path d="M17.223 17.1961C16.0759 18.484 14.1176 18.5827 12.8513 17.4155C11.585 16.2497 11.4863 14.2593 12.6321 12.9727C13.7792 11.6848 15.7363 11.5874 17.0052 12.7546C18.2727 13.9192 18.3701 15.9082 17.223 17.1961Z" fill="#003274"/>
<path d="M7.75659 15.1942C7.75659 15.1942 9.48171 14.3061 10.4801 10.3502C11.4798 6.39685 15.2005 4.55714 15.2005 4.55714C15.2005 4.55714 7.2106 -3.4742 1.15985 9.12459C1.15985 9.12459 6.09299 10.1048 7.75659 15.1942Z" fill="#003274"/>
<path d="M8.48203 1.46194C8.48203 1.46194 14.6392 0.235037 18.2855 8.05215C18.2855 8.05215 22.5368 9.44653 26.2741 5.44644C26.2741 5.44644 20.026 -3.21327 8.48203 1.46194Z" fill="#003274"/>
<path d="M18.5278 21.1157C18.5278 21.1157 16.9052 20.0472 13.0256 21.1495C9.14595 22.253 5.71236 19.907 5.71236 19.907C5.71236 19.907 2.84399 30.9322 16.6399 29.9377C16.6399 29.9377 15.0109 25.121 18.5278 21.1157Z" fill="#003274"/>
<path d="M6.42757 27.3489C6.42757 27.3489 2.29932 22.5607 7.15556 15.4525C7.15556 15.4525 6.22122 11.0253 0.931778 9.74902C0.931778 9.74902 -3.34387 19.5603 6.42757 27.3489Z" fill="#003274"/>
<path d="M18.2227 8.75191C18.2227 8.75191 18.1215 10.7098 21.0027 13.5621C23.8851 16.4132 23.5993 20.5977 23.5993 20.5977C23.5993 20.5977 34.4576 17.5999 26.7074 5.99561C26.7087 5.99561 23.4058 9.836 18.2227 8.75191Z" fill="#003274"/>
<path d="M29.6027 16.251C29.6027 16.251 27.5751 22.266 19.0687 21.5611C19.0687 21.5611 15.753 24.5939 17.3064 29.8728C17.3076 29.8728 27.834 28.716 29.6027 16.251Z" fill="#003274"/>
</svg>
