<svg width="29" height="17" fill="none" xmlns="http://www.w3.org/2000/svg"><path fill-rule="evenodd" clip-rule="evenodd" d="M24.1 8.341s3.829-5.402 4.206-7.17c.119-.635-.159-.992-.814-.992H24.18c-.754 0-1.032.337-1.27.814 0 0-1.785 3.833-3.967 6.236-.714.775-1.07 1.013-1.448 1.013-.317 0-.456-.258-.456-.953V1.132c0-.874-.1-1.132-.813-1.132H10.91c-.397 0-.655.238-.655.556 0 .814 1.25.993 1.25 3.197v4.529c0 .913-.06 1.27-.476 1.27-1.13 0-3.848-3.932-5.376-8.38C5.336.258 5.018 0 4.146 0H.833C.357 0 0 .338 0 .814 0 1.708 1.031 5.8 5.118 11.3c2.737 3.694 6.327 5.7 9.56 5.7 1.984 0 2.46-.338 2.46-1.172v-2.82c0-.715.278-1.013.675-1.013.456 0 1.27.14 3.134 2.006 2.221 2.125 2.38 3.019 3.59 3.019h3.73c.376 0 .733-.179.733-.814 0-.835-1.091-2.324-2.757-4.111-.675-.914-1.805-1.907-2.142-2.364-.516-.536-.357-.834 0-1.39z" fill="#fff"/></svg>